<?xml version="1.0" encoding="UTF-8"?>
<svg width="140px" height="32px" viewBox="0 0 140 32" version="1.1" xmlns="http://www.w3.org/2000/svg" xmlns:xlink="http://www.w3.org/1999/xlink">
    <!-- Generator: Sketch 42 (36781) - http://www.bohemiancoding.com/sketch -->
    <title>pilu-logo-black</title>
    <desc>Created with Sketch.</desc>
    <defs></defs>
    <g id="Symbols" stroke="none" stroke-width="1" fill="none" fill-rule="evenodd">
        <g id="pilu-logo-black">
            <path d="M3.50649351,32 L0,32 L0,10.3109509 L3.50649351,10.3109509 L3.50649351,11.8395674 C4.8883186,10.5609069 6.45713408,9.9215863 8.21298701,9.9215863 C10.3013091,9.9215863 12.0207725,10.6330108 13.3714286,12.055881 C14.742864,13.4691373 15.4285714,15.2525054 15.4285714,17.4060388 C15.4285714,19.5115022 14.7480588,21.2660287 13.387013,22.669671 C12.0363569,24.0636993 10.3324778,24.760703 8.27532468,24.760703 C6.49869242,24.760703 4.90909792,24.1021547 3.50649351,22.7850383 L3.50649351,32 Z M11.8441558,17.4204597 C11.8441558,16.0745013 11.4493546,14.9785231 10.6597403,14.1324921 C9.85973626,13.2768472 8.85195413,12.8490311 7.63636364,12.8490311 C6.34804551,12.8490311 5.3039001,13.2624264 4.5038961,14.0892294 C3.7038921,14.9160324 3.3038961,16.0023968 3.3038961,17.3483551 C3.3038961,18.6654715 3.7038921,19.7518359 4.5038961,20.6074808 C5.29351044,21.4438978 6.33246109,21.8621 7.62077922,21.8621 C8.83636971,21.8621 9.83895709,21.4390909 10.6285714,20.5930599 C11.4389651,19.747029 11.8441558,18.6895061 11.8441558,17.4204597 Z M22.6441558,10.3109509 L22.6441558,24.3569175 L19.1376623,24.3569175 L19.1376623,10.3109509 L22.6441558,10.3109509 Z M18.6077922,4.4704822 C18.6077922,3.90325689 18.8311666,3.41295084 19.2779221,2.99954935 C19.7246776,2.58614785 20.2597371,2.3794502 20.8831169,2.3794502 C21.5168863,2.3794502 22.0571406,2.58614785 22.5038961,2.99954935 C22.9506516,3.40333685 23.174026,3.89844982 23.174026,4.48490311 C23.174026,5.07135639 22.9506516,5.57127629 22.5038961,5.98467778 C22.0675303,6.39807928 21.5324707,6.60477693 20.8987013,6.60477693 C20.2649319,6.60477693 19.7246776,6.39807928 19.2779221,5.98467778 C18.8311666,5.57127629 18.6077922,5.06654947 18.6077922,4.4704822 Z M30.5922078,0 L30.5922078,24.3569175 L27.0857143,24.3569175 L27.0857143,0 L30.5922078,0 Z M38.5402597,10.3109509 L38.5402597,18.3722397 C38.5402597,20.6988249 39.5324576,21.8621 41.5168831,21.8621 C43.5013086,21.8621 44.4935065,20.6988249 44.4935065,18.3722397 L44.4935065,10.3109509 L48,10.3109509 L48,18.4443443 C48,19.5691809 47.8493522,20.5401792 47.5480519,21.3573682 C47.2571414,22.0880313 46.7532503,22.7465796 46.0363636,23.3330329 C44.8519421,24.2848177 43.3454637,24.760703 41.5168831,24.760703 C39.6986922,24.760703 38.1974085,24.2848177 37.012987,23.3330329 C36.2857106,22.7465796 35.7714301,22.0880313 35.4701299,21.3573682 C35.1792193,20.703617 35.0337662,19.7326187 35.0337662,18.4443443 L35.0337662,10.3109509 L38.5402597,10.3109509 Z" id="pilu" fill="#231F20"></path>
            <rect id="Rectangle-2" fill="#1D1D1D" x="68" y="15" width="60" height="2"></rect>
        </g>
    </g>
</svg>