<?xml version="1.0" encoding="UTF-8"?>
<svg width="24px" height="22px" viewBox="0 0 24 22" version="1.1" xmlns="http://www.w3.org/2000/svg" xmlns:xlink="http://www.w3.org/1999/xlink">
    <!-- Generator: Sketch 42 (36781) - http://www.bohemiancoding.com/sketch -->
    <title>profile</title>
    <desc>Created with Sketch.</desc>
    <defs>
        <path d="M22.1584174,15.1603415 C21.1035652,13.4927673 19.6452,12.1134316 17.9210609,11.1433731 C18.143113,10.5679766 18.3550783,10.0449647 18.6209739,8.05184561 C18.8868695,6.05872657 17.372249,0.315932588 12.0001043,0.315932588 C6.62795969,0.315932588 5.08532948,5.87672188 5.37302609,8.02935673 C5.66072269,10.1819916 5.85693913,10.5680795 6.07904348,11.1434246 C4.35485217,12.113586 2.89653913,13.4928702 1.84168696,15.1605474 C0.659634783,17.0291836 0.0348,19.1865731 0.0348,21.3995415 C0.0348,21.7027556 0.284086957,21.9485895 0.591443478,21.9485895 L23.4087652,21.9485895 C23.7161217,21.9485895 23.9654087,21.702807 23.9654087,21.3995415 C23.9653565,19.1863673 23.3404696,17.0289263 22.1584174,15.1603415 Z" id="path-1"></path>
        <mask id="mask-2" maskContentUnits="userSpaceOnUse" maskUnits="objectBoundingBox" x="0" y="0" width="23.9306087" height="21.6326569" fill="white">
            <use xlink:href="#path-1"></use>
        </mask>
    </defs>
    <g id="Symbols" stroke="none" stroke-width="1" fill="none" fill-rule="evenodd">
        <g id="profile" fill-rule="nonzero">
            <use id="Shape" stroke="#000000" mask="url(#mask-2)" stroke-width="2.18181818" xlink:href="#path-1"></use>
            <path d="M9.57615652,7.92236725 C9.26968696,7.92236725 9.01961739,8.16881871 9.01961739,8.47120936 C9.01961739,8.77349708 9.26963478,9.02010292 9.57615652,9.02010292 C9.88267826,9.02010292 10.1326957,8.77354854 10.1326957,8.47120936 C10.1326435,8.16881871 9.88262609,7.92236725 9.57615652,7.92236725 Z" id="Shape" fill="#000000"></path>
            <path d="M14.424,7.92236725 C14.1175304,7.92236725 13.8675652,8.16881871 13.8675652,8.47120936 C13.867513,8.77349708 14.1174783,9.02010292 14.424,9.02010292 C14.7305217,9.02010292 14.9805391,8.77354854 14.9805391,8.47120936 C14.980487,8.16881871 14.7304696,7.92236725 14.424,7.92236725 Z" id="Shape" fill="#000000"></path>
            <path d="M12.9261913,10.696683 C12.6789391,10.9406129 12.3499826,11.0750316 11.9999478,11.0750316 C11.649913,11.0750316 11.3210087,10.9406643 11.0737043,10.696683 C10.8564522,10.4822409 10.5040696,10.4821895 10.2865043,10.6965801 C10.0692522,10.9109193 10.0691478,11.2585965 10.2864522,11.4730386 C10.7440174,11.9245146 11.3525217,12.1731275 12,12.1731275 C12.6474783,12.1731275 13.2559826,11.9245146 13.7135478,11.4730386 C13.9308522,11.2585965 13.9307478,10.9109193 13.7133913,10.6965801 C13.4958783,10.482138 13.1434957,10.4822924 12.9261913,10.696683 Z" id="Shape" fill="#000000"></path>
        </g>
    </g>
</svg>