<?xml version="1.0" encoding="UTF-8"?>
<svg width="24px" height="24px" viewBox="0 0 24 24" version="1.1" xmlns="http://www.w3.org/2000/svg" xmlns:xlink="http://www.w3.org/1999/xlink">
    <!-- Generator: Sketch 42 (36781) - http://www.bohemiancoding.com/sketch -->
    <title>discover</title>
    <desc>Created with Sketch.</desc>
    <defs>
        <path d="M12,11 C11.4545455,11 11,11.4545455 11,12 C11,12.5454545 11.4545455,13 12,13 C12.5454545,13 13,12.5454545 13,12 C13,11.4545455 12.5454545,11 12,11 Z M12,0 C5.4,0 0,5.4 0,12 C0,18.6 5.4,24 12,24 C18.6,24 24,18.6 24,12 C24,5.4 18.6,0 12,0 Z M13.76,13.76 L7.2,16.8 L10.24,10.24 L16.8,7.2 L13.76,13.76 Z" id="path-1"></path>
        <mask id="mask-2" maskContentUnits="userSpaceOnUse" maskUnits="objectBoundingBox" x="0" y="0" width="24" height="24" fill="white">
            <use xlink:href="#path-1"></use>
        </mask>
    </defs>
    <g id="Symbols" stroke="none" stroke-width="1" fill="none" fill-rule="evenodd" fill-opacity="0">
        <g id="discover" stroke="#000000" fill-rule="nonzero" stroke-width="2" fill="#000000">
            <use id="Shape" mask="url(#mask-2)" xlink:href="#path-1"></use>
        </g>
    </g>
</svg>