<?xml version="1.0" encoding="UTF-8"?>
<svg width="24px" height="7px" viewBox="0 0 24 7" version="1.1" xmlns="http://www.w3.org/2000/svg" xmlns:xlink="http://www.w3.org/1999/xlink">
    <!-- Generator: Sketch 42 (36781) - http://www.bohemiancoding.com/sketch -->
    <title>edit-story</title>
    <desc>Created with Sketch.</desc>
    <defs>
        <path d="M3.42857143,0 C5.31428571,0 6.85714286,1.575 6.85714286,3.5 C6.85714286,5.425 5.31428571,7 3.42857143,7 C1.54285714,7 0,5.425 0,3.5 C0,1.575 1.54285714,0 3.42857143,0 Z M12,0 C13.8857143,0 15.4285714,1.575 15.4285714,3.5 C15.4285714,5.425 13.8857143,7 12,7 C10.1142857,7 8.57142857,5.425 8.57142857,3.5 C8.57142857,1.575 10.1142857,0 12,0 Z M20.5714286,0 C22.4571429,0 24,1.575 24,3.5 C24,5.425 22.4571429,7 20.5714286,7 C18.6857143,7 17.1428571,5.425 17.1428571,3.5 C17.1428571,1.575 18.6857143,0 20.5714286,0 Z" id="path-1"></path>
        <mask id="mask-2" maskContentUnits="userSpaceOnUse" maskUnits="objectBoundingBox" x="0" y="0" width="24" height="7" fill="white">
            <use xlink:href="#path-1"></use>
        </mask>
    </defs>
    <g id="Symbols" stroke="none" stroke-width="1" fill="none" fill-rule="evenodd" fill-opacity="0">
        <g id="edit-story" stroke="#000000" fill-rule="nonzero" stroke-width="2" fill="#000000">
            <use id="Combined-Shape" mask="url(#mask-2)" xlink:href="#path-1"></use>
        </g>
    </g>
</svg>